<?xml version="1.0" encoding="UTF-8" standalone="no"?>
<!-- Created with Inkscape (http://www.inkscape.org/) -->

<svg
   width="320"
   height="320"
   viewBox="0 0 84.666667 84.666667"
   version="1.1"
   id="svg5"
   xml:space="preserve"
   inkscape:version="1.2.1 (9c6d41e410, 2022-07-14)"
   sodipodi:docname="logo.svg"
   inkscape:export-filename="logo.png"
   inkscape:export-xdpi="96"
   inkscape:export-ydpi="96"
   xmlns:inkscape="http://www.inkscape.org/namespaces/inkscape"
   xmlns:sodipodi="http://sodipodi.sourceforge.net/DTD/sodipodi-0.dtd"
   xmlns="http://www.w3.org/2000/svg"
   xmlns:svg="http://www.w3.org/2000/svg"><sodipodi:namedview
     id="namedview7"
     pagecolor="#505050"
     bordercolor="#ffffff"
     borderopacity="1"
     inkscape:showpageshadow="0"
     inkscape:pageopacity="0"
     inkscape:pagecheckerboard="1"
     inkscape:deskcolor="#505050"
     inkscape:document-units="mm"
     showgrid="false"
     showguides="true"
     inkscape:zoom="1.829812"
     inkscape:cx="265.3278"
     inkscape:cy="267.24057"
     inkscape:window-width="2560"
     inkscape:window-height="1339"
     inkscape:window-x="0"
     inkscape:window-y="32"
     inkscape:window-maximized="1"
     inkscape:current-layer="layer1"><sodipodi:guide
       position="43.880843,19.678368"
       orientation="1,0"
       id="guide9462"
       inkscape:locked="false" /><sodipodi:guide
       position="130.2597,-1.6278965"
       orientation="1,0"
       id="guide9464"
       inkscape:locked="false" /></sodipodi:namedview><defs
     id="defs2" /><g
     inkscape:label="Layer 1"
     inkscape:groupmode="layer"
     id="layer1"><g
       id="g7224"
       transform="translate(-58.923766,-30.832842)"><path
         id="path314"
         style="fill:#6b0f1a;fill-opacity:1;stroke:#6b0f1a;stroke-width:0.264583px;stroke-linecap:butt;stroke-linejoin:miter;stroke-opacity:1"
         d="m 72.757316,32.276066 8.359697,8.576221 -0.119373,25.291996 c -0.0042,0.945194 0.510784,2.125806 2.47065,2.060856 2.53442,-0.08398 6.495211,0.02377 6.495211,0.02377 0,0 5.816475,-6.010966 8.864575,-8.872326 0.920741,-0.864332 2.919304,0.542127 1.812814,1.642793 C 95.641145,65.972765 81.480815,79.89228 81.480815,79.89228 l 0.09508,9.554456 c 5.122326,3.350298 11.252624,5.375408 18.409729,4.923213 10.592956,-0.588451 21.093696,-7.737523 23.357176,-12.561139 -1.77506,-1.29172 -2.62159,-2.016312 -3.56471,-2.816261 0.84459,-1.089654 0.79247,-0.993194 1.62937,-2.191891 1.89321,1.006403 1.87104,1.295134 4.07859,2.476285 1.6969,-3.093259 2.81179,-5.515431 3.70018,-9.189045 -2.43649,-0.486123 -3.65867,-0.778801 -4.58756,-1.022539 0.10494,-1.023853 0.11275,-1.11303 0.31298,-2.635013 1.86101,-0.05935 4.88451,0.260756 4.90234,0.08378 0.30624,-3.039492 0.0249,-6.960053 -0.57081,-9.531413 -0.0129,-0.05561 -4.5141,0.903317 -4.5141,0.903317 l -0.71766,-2.882911 c -0.0909,-0.365283 4.25473,-1.692293 4.25473,-1.692293 -1.43306,-4.097166 -2.57639,-5.892206 -4.57228,-8.280769 0,0 -3.52627,3.022073 -3.75347,2.744077 -0.23058,-0.282129 -2.16291,-2.339577 -2.16291,-2.339577 0,0 3.5657,-3.146577 3.51513,-3.200617 -2.09946,-2.243454 -4.83018,-4.283623 -7.40966,-5.683756 0,0 -2.18527,3.923069 -2.35577,3.878188 -0.32794,-0.08632 -2.82655,-1.335725 -2.82655,-1.335725 l 1.87127,-4.272632 c -2.64841,-1.080843 -5.77658,-1.84143 -9.07844,-2.265634 0,0 -0.27771,4.531887 -0.31275,4.501116 l -3.210869,-0.101421 0.01486,-4.580856 z m 15.762345,13.329419 c 1.18225,-0.0082 2.077393,0.829924 2.077393,0.829924 l -3.940845,4.012674 c 0,0 -2.032887,-2.057136 -0.05478,-3.979085 0.61816,-0.600608 1.239874,-0.829599 1.802991,-0.859896 0.03871,-0.0021 0.0771,-0.0034 0.115238,-0.0036 z"
         sodipodi:nodetypes="cccscscccccccccccsscsssscsssccsccccsccssss" /></g><ellipse
       style="fill:#dce0d9;fill-opacity:1;stroke:#dce0d9;stroke-width:0.270325;stroke-dasharray:none;stroke-opacity:1"
       id="path8732"
       cx="42.333332"
       cy="69.293983"
       rx="25.039314"
       ry="1.9273487" /><text
       xml:space="preserve"
       style="font-style:normal;font-variant:normal;font-weight:normal;font-stretch:normal;font-size:11.2889px;line-height:1.25;font-family:'Poiret One';-inkscape-font-specification:'Poiret One, Normal';font-variant-ligatures:normal;font-variant-caps:normal;font-variant-numeric:normal;font-variant-east-asian:normal;stroke-width:0.264583;fill:#6b0f1a;fill-opacity:1"
       x="23.08012"
       y="80.088493"
       id="text9520"><tspan
         sodipodi:role="line"
         id="tspan9518"
         style="font-style:normal;font-variant:normal;font-weight:normal;font-stretch:normal;font-size:11.2889px;font-family:'Poiret One';-inkscape-font-specification:'Poiret One, Normal';font-variant-ligatures:normal;font-variant-caps:normal;font-variant-numeric:normal;font-variant-east-asian:normal;fill:#6b0f1a;fill-opacity:1;stroke-width:0.264583"
         x="23.08012"
         y="80.088493">priyome</tspan></text></g></svg>
